<svg xmlns="http://www.w3.org/2000/svg" viewBox="0 0 64 64" width="64" height="64">
  <defs>
    <linearGradient id="g" x1="0" y1="0" x2="64" y2="64" gradientUnits="userSpaceOnUse">
      <stop stop-color="#f4d98b"/>
      <stop offset="0.5" stop-color="#d4af37"/>
      <stop offset="1" stop-color="#9c7a1e"/>
    </linearGradient>
  </defs>
  <rect width="64" height="64" rx="14" fill="#fbf8f2"/>
  <!-- lotus -->
  <g fill="url(#g)">
    <path d="M32 10c-3 5-3 10 0 14 3-4 3-9 0-14z"/>
    <path d="M32 12c-5 3-8 7-8 12 5-1 9-4 8-12z"/>
    <path d="M32 12c5 3 8 7 8 12-5-1-9-4-8-12z"/>
    <path d="M20 18c-2 4-2 8 1 11 3-3 3-8-1-11z"/>
    <path d="M44 18c2 4 2 8-1 11-3-3-3-8 1-11z"/>
  </g>
  <!-- K -->
  <path d="M24 30v22M24 41l13-11M24 41l13 11" fill="none" stroke="#7c1f2c" stroke-width="4.5" stroke-linecap="round" stroke-linejoin="round"/>
  <circle cx="41.5" cy="41" r="2.4" fill="url(#g)"/>
</svg>
