<svg xmlns="http://www.w3.org/2000/svg" viewBox="0 0 460 150" width="460" height="150" role="img" aria-label="Kanak Precious Metal Refinery LLP">
  <defs>
    <linearGradient id="gold" x1="0" y1="0" x2="0" y2="1">
      <stop offset="0" stop-color="#f6e0a0"/>
      <stop offset="0.5" stop-color="#d4af37"/>
      <stop offset="1" stop-color="#9c7a1e"/>
    </linearGradient>
  </defs>
  <!-- Mark -->
  <g transform="translate(196,4)">
    <!-- lotus petals -->
    <g fill="url(#gold)">
      <path d="M34 4c-3.4 6-3.4 12 0 17 3.4-5 3.4-11 0-17z"/>
      <path d="M34 7c-6 3.6-9.6 8.6-9 15 5.6-1 10.4-5.6 9-15z"/>
      <path d="M34 7c6 3.6 9.6 8.6 9 15-5.6-1-10.4-5.6-9-15z"/>
      <path d="M20 14c-3 4.6-3.4 9.6 0 13.4 3.2-3.6 3.2-9 0-13.4z"/>
      <path d="M48 14c3 4.6 3.4 9.6 0 13.4-3.2-3.6-3.2-9 0-13.4z"/>
    </g>
    <!-- K -->
    <path d="M26 30v42M26 51l22-19M26 51l22 21" fill="none" stroke="#7c1f2c" stroke-width="8" stroke-linecap="round" stroke-linejoin="round"/>
    <!-- gold flourish -->
    <path d="M6 66c14 8 34 8 48-2" fill="none" stroke="url(#gold)" stroke-width="5" stroke-linecap="round"/>
    <circle cx="50" cy="51" r="3.4" fill="url(#gold)"/>
  </g>
  <!-- Wordmark -->
  <text x="230" y="112" text-anchor="middle" font-family="Georgia, 'Times New Roman', serif" font-size="46" font-weight="700" letter-spacing="6" fill="#7c1f2c">KANAK</text>
  <text x="230" y="134" text-anchor="middle" font-family="Georgia, serif" font-size="13" font-weight="600" letter-spacing="5" fill="#b98a2a">PRECIOUS METAL REFINERY LLP</text>
</svg>
